<svg width="87.5542084px" height="139.391695px" viewBox="0 0 87.5542084 139.391695" version="1.1" xmlns="http://www.w3.org/2000/svg" xmlns:xlink="http://www.w3.org/1999/xlink">
  <g id="handheld" stroke="none" stroke-width="1" fill="none" fill-rule="evenodd">
    <g id="Shape">
      <path d="M25.0512821,24 L13,13.0548109 C17.01709,9.00105469 21.0341921,6.16341442 25.0512821,4.54191438 C31.0769231,2.10965811 41.9230769,0.893530161 46.7435897,3.3257863 C49.9573051,4.94728635 54.3760282,8.19029859 60,13.0548109 L47.9487179,24 C43.9316641,20.7569513 40.3162795,19.1354877 37.1025641,19.1354877 C33.8888487,19.1354877 29.8717949,20.7569513 25.0512821,24 Z" fill="#ECCE00"></path>
      <path d="M69.8211873,49.2615364 C71.5768058,49.2615364 73,50.6760484 73,52.4209567 L73,69.7977683 C73,71.5426767 71.5768058,72.9571886 69.8211873,72.9571886 L68.5325731,72.9571886 L68.5325731,129.521739 C68.5325731,134.75642 64.2629883,139 58.9961349,139 L9.53643815,139 C4.26962518,139 0,134.756401 0,129.521739 L0,39.4782609 C0,34.243559 4.26960587,30 9.53643815,30 L58.9961349,30 C64.2630077,30 68.5325731,34.2435398 68.5325731,39.4782609 L68.5325731,49.2615364 L69.8211873,49.2615364 Z M69.8211873,51.6370404 L66.1424883,51.6370404 L66.1424883,39.4782609 C66.1424883,35.5554918 62.9429977,32.375504 58.9961349,32.375504 L9.53643815,32.375504 C5.58961323,32.375504 2.39008475,35.5555137 2.39008475,39.4782609 L2.39008475,129.521739 C2.39008475,133.444449 5.58963519,136.624496 9.53643815,136.624496 L58.9961349,136.624496 C62.9429757,136.624496 66.1424883,133.444471 66.1424883,129.521739 L66.1424883,70.5816846 L69.8211873,70.5816846 C70.2567985,70.5816846 70.6099153,70.230722 70.6099153,69.7977683 L70.6099153,52.4209567 C70.6099153,51.988003 70.2567985,51.6370404 69.8211873,51.6370404 Z" fill="#333333" fill-rule="nonzero"></path>
      <path d="M35,131 C36.6568571,131 38,129.656857 38,128 C38,126.343154 36.6568571,125 35,125 C33.3431429,125 32,126.343154 32,128 C32,129.656857 33.3431429,131 35,131 Z" fill="#333333" fill-rule="nonzero"></path>
      <path d="M14,114 L61,114 L61,119.4 C61,119.731368 60.7231821,120 60.3816487,120 L14,120 L14,114 Z" fill="#ECCE00"></path>
      <path d="M14.6326531,122 L14.6326531,119.616438 L59.5930612,119.616438 C60.6969816,119.616438 61.5918367,118.730725 61.5918367,117.638082 L61.5918367,39.3619178 C61.5918367,38.2692892 60.6969719,37.3835616 59.5930612,37.3835616 L9.40693878,37.3835616 C8.30304245,37.3835616 7.40816327,38.2692988 7.40816327,39.3619178 L7.40816327,86.7349671 L5,86.7349671 L5,39.3619178 C5,36.9528941 6.97305061,35 9.40693878,35 L59.5930612,35 C62.0269666,35 64,36.9528872 64,39.3619178 L64,117.638082 C64,120.04713 62.0269735,122 59.5930612,122 L14.6326531,122 Z M7.40816327,99.2486658 L5,99.2486658 L5,93.2897616 L7.40816327,93.2897616 L7.40816327,99.2486658 Z" fill="#333333" fill-rule="nonzero"></path>
      <path d="M25.7904718,23 L24,21.5623135 C27.0885388,18.6880424 31.6410005,17 36.5369861,17 C41.3927423,17 45.9115032,18.660281 49,21.4939816 L47.2213567,22.9425981 C44.5981066,20.535762 40.7243349,19.1124627 36.5369861,19.1124627 C32.3152161,19.1124627 28.4130259,20.5593859 25.7904718,23 Z" fill="#333333" fill-rule="nonzero"></path>
      <path d="M18.8312632,19 L17,17.3951708 C21.4239913,11.4882984 27.9810251,8 35.0526689,8 C42.0665056,8 48.5755518,11.4311997 53,17.2555274 L51.1790828,18.8740728 C47.1959067,13.6306341 41.3507443,10.5493963 35.0526689,10.5493963 C28.7026638,10.5493963 22.8141994,13.6820203 18.8312632,19 Z" fill="#333333" fill-rule="nonzero"></path>
      <path d="M12.8450967,13 L11,11.4211745 C12.8272214,9.24384813 14.9421305,7.3160001 17.284715,5.69333569 L18.652792,7.7071733 C16.4875321,9.2070083 14.5330761,10.9885951 12.8450967,13 Z M60,11.2511345 L58.1658968,12.8429673 C52.5926503,6.29537041 44.402233,2.44211745 35.571917,2.44211745 C30.8345976,2.44211745 26.2601641,3.54517898 22.1382994,5.63122884 L21.0546537,3.44797773 C25.5113271,1.19248329 30.4565958,0 35.571917,0 C45.1121018,0 53.9704877,4.16750464 60,11.2511345 Z" fill="#333333" fill-rule="nonzero"></path>
      <polygon fill="#ECCE00" fill-rule="nonzero" points="87 58 27 58 27 99 87 99"></polygon>
      <polygon fill="#333333" fill-rule="nonzero" points="32 63 35 63 35 95 32 95"></polygon>
      <polygon fill="#333333" fill-rule="nonzero" points="57 63 63 63 63 95 57 95"></polygon>
      <polygon fill="#333333" fill-rule="nonzero" points="66 63 69 63 69 95 66 95"></polygon>
      <polygon fill="#333333" fill-rule="nonzero" points="73 63 76 63 76 95 73 95"></polygon>
      <polygon fill="#333333" fill-rule="nonzero" points="79 63 82 63 82 95 79 95"></polygon>
      <polygon fill="#333333" fill-rule="nonzero" points="38 63 47 63 47 95 38 95"></polygon>
      <polygon fill="#333333" fill-rule="nonzero" points="51 63 54 63 54 95 51 95"></polygon>
      <polygon fill="#333333" fill-rule="nonzero" points="27.4444444 59.4444444 27.4444444 68 25 68 25 57 36 57 36 59.4444444"></polygon>
      <polygon fill="#333333" fill-rule="nonzero" transform="translate(81.500000, 62.500000) scale(-1, 1) translate(-81.500000, -62.500000) " points="78.4444444 59.4444444 78.4444444 68 76 68 76 57 87 57 87 59.4444444"></polygon>
      <polygon fill="#333333" fill-rule="nonzero" transform="translate(30.500000, 95.500000) scale(-1, 1) rotate(-180.000000) translate(-30.500000, -95.500000) " points="27.4444444 92.4444444 27.4444444 101 25 101 25 90 36 90 36 92.4444444"></polygon>
      <polygon fill="#333333" fill-rule="nonzero" transform="translate(81.500000, 95.500000) rotate(-180.000000) translate(-81.500000, -95.500000) " points="78.4444444 92.4444444 78.4444444 101 76 101 76 90 87 90 87 92.4444444"></polygon>
    </g>
  </g>
</svg>
