<svg xmlns="http://www.w3.org/2000/svg" width="150" height="150" viewBox="0 0 150 150">
  <g fill="none" fill-rule="evenodd">
    <g fill-rule="nonzero" transform="translate(19.632 30)">
      <path fill="#E9E9E9" d="M13.898 16.443H94.5a2 2 0 0 1 2 2v5.59H11.898v-5.59a2 2 0 0 1 2-2z"/>
      <path stroke="#E9E9E9" stroke-linecap="square" stroke-width="2.5" d="M.5 88.578H108"/>
      <path stroke="#333" stroke-linecap="round" stroke-linejoin="round" stroke-width="2.5" d="M97.222 74.444v10.134a4 4 0 0 1-4 4H14.778a4 4 0 0 1-4-4V70m0-25.133V42.95m0-6.949V17.958a4 4 0 0 1 .585-2.081l7.72-12.667a4 4 0 0 1 3.415-1.919h61.959a4 4 0 0 1 3.299 1.738l8.765 12.784a4 4 0 0 1 .7 2.262v5.135M73.102 23.207h-61M73 16.684h23.344"/>
      <path fill="#FFDB15" stroke="#333" stroke-width="2.5" d="M46.724 17.672v22.927a.7.7 0 0 0 .91.667l6.676-2.106 6.676 2.106a.7.7 0 0 0 .91-.667V17.672l-3.3-15.88h-8.57l-3.302 15.88z"/>
      <path stroke="#333" stroke-linecap="round" stroke-linejoin="round" stroke-width="2.5" d="M11.898 16.684H67"/>
      <path fill="#E9E9E9" d="M21 68.934h19.545a2 2 0 0 1 2 2v8.66a2 2 0 0 1-2 2H21a2 2 0 0 1-2-2v-8.66a2 2 0 0 1 2-2z"/>
      <rect width="21.045" height="9.306" x="20.25" y="68.184" stroke="#333" stroke-width="2.5" rx="2"/>
    </g>
    <g transform="translate(98.632 60)">
      <circle cx="17.75" cy="17.5" r="5.5" fill="#FFDB15" fill-rule="nonzero"/>
      <path fill="#333" fill-rule="nonzero" d="M28.596 19.647c1.435-.163 3.089-.248 5.076-.248.88 0 1.591-.723 1.591-1.616 0-.894-.712-1.617-1.591-1.617-6.397 0-9.652-.774-11.607-2.76-1.955-1.987-2.717-5.293-2.717-11.79C19.348.724 18.636 0 17.757 0c-.88 0-1.592.723-1.592 1.617 0 6.496-.762 9.802-2.717 11.79-1.955 1.986-5.21 2.76-11.607 2.76-.88 0-1.591.722-1.591 1.616 0 .893.712 1.616 1.592 1.616 6.397 0 9.651.774 11.606 2.76 1.956 1.987 2.717 5.293 2.717 11.79 0 .893.712 1.616 1.592 1.616.88 0 1.591-.723 1.591-1.616 0-2.019.084-3.7.244-5.158.192-2.88 1.016-5.064 2.473-6.555 1.457-1.49 3.634-2.354 6.53-2.59zm-10.84 3.295c-.515-1.159-1.187-2.183-2.057-3.07a10.018 10.018 0 0 0-3.022-2.09 10.016 10.016 0 0 0 3.022-2.09c.87-.885 1.541-1.91 2.058-3.069.516 1.16 1.187 2.184 2.057 3.07.87.883 1.878 1.567 3.022 2.09a10.016 10.016 0 0 0-3.022 2.09c-.87.886-1.541 1.91-2.057 3.069z"/>
      <path stroke="#FFF" stroke-width=".5" d="M28.596 19.647c1.435-.163 3.089-.248 5.076-.248.88 0 1.591-.723 1.591-1.616 0-.894-.712-1.617-1.591-1.617-6.397 0-9.652-.774-11.607-2.76-1.955-1.987-2.717-5.293-2.717-11.79C19.348.724 18.636 0 17.757 0c-.88 0-1.592.723-1.592 1.617 0 6.496-.762 9.802-2.717 11.79-1.955 1.986-5.21 2.76-11.607 2.76-.88 0-1.591.722-1.591 1.616 0 .893.712 1.616 1.592 1.616 6.397 0 9.651.774 11.606 2.76 1.956 1.987 2.717 5.293 2.717 11.79 0 .893.712 1.616 1.592 1.616.88 0 1.591-.723 1.591-1.616 0-2.019.084-3.7.244-5.158.192-2.88 1.016-5.064 2.473-6.555 1.457-1.49 3.634-2.354 6.53-2.59z"/>
    </g>
    <path fill="#333" fill-rule="nonzero" d="M96.223 99.7c2.217 0 3.401.244 3.967.819.565.576.808 1.78.808 4.03 0 .894.712 1.617 1.591 1.617.88 0 1.592-.723 1.592-1.617 0-2.25.243-3.454.808-4.03.566-.575 1.75-.82 3.966-.82.88 0 1.592-.722 1.592-1.616 0-.894-.712-1.617-1.592-1.617-2.216 0-3.4-.244-3.966-.819-.566-.576-.808-1.78-.808-4.03 0-.894-.712-1.617-1.592-1.617-.88 0-1.591.723-1.591 1.617 0 2.25-.243 3.454-.808 4.03-.566.575-1.75.82-3.967.82-.88 0-1.591.723-1.591 1.616 0 .894.712 1.617 1.591 1.617zm6.217-1.767l.15-.158c.046.054.096.106.149.158l.152.15c-.05.05-.103.098-.152.15l-.15.158a2.868 2.868 0 0 0-.149-.158l-.152-.15c.05-.049.102-.098.152-.15z"/>
    <path stroke="#FFF" stroke-width=".5" d="M96.223 99.7c2.217 0 3.401.244 3.967.819.565.576.808 1.78.808 4.03 0 .894.712 1.617 1.591 1.617.88 0 1.592-.723 1.592-1.617 0-2.25.243-3.454.808-4.03.566-.575 1.75-.82 3.966-.82.88 0 1.592-.722 1.592-1.616 0-.894-.712-1.617-1.592-1.617-2.216 0-3.4-.244-3.966-.819-.566-.576-.808-1.78-.808-4.03 0-.894-.712-1.617-1.592-1.617-.88 0-1.591.723-1.591 1.617 0 2.25-.243 3.454-.808 4.03-.566.575-1.75.82-3.967.82-.88 0-1.591.723-1.591 1.616 0 .894.712 1.617 1.591 1.617z"/>
  </g>
</svg>
