<svg xmlns="http://www.w3.org/2000/svg" width="24" height="25" viewBox="0 0 24 25">
  <g fill="#333" fill-rule="nonzero">
    <path d="M4.444 17.25c-.383 0-.694-.336-.694-.75s.31-.75.694-.75h14.612c.383 0 .694.336.694.75s-.31.75-.694.75H4.444zM4.444 14.25c-.383 0-.694-.336-.694-.75s.31-.75.694-.75h14.612c.383 0 .694.336.694.75s-.31.75-.694.75H4.444zM4.444 11.25c-.383 0-.694-.336-.694-.75s.31-.75.694-.75h14.612c.383 0 .694.336.694.75s-.31.75-.694.75H4.444zM4.444 20.25c-.383 0-.694-.336-.694-.75s.31-.75.694-.75h14.612c.383 0 .694.336.694.75s-.31.75-.694.75H4.444zM4.444 23.25c-.383 0-.694-.336-.694-.75s.31-.75.694-.75h14.612c.383 0 .694.336.694.75s-.31.75-.694.75H4.444zM10.194 6.7a.75.75 0 0 1 0-1.5h3.24a.75.75 0 1 1 0 1.5h-3.24z"/>
    <path d="M1.5 1.5v22.25a.75.75 0 1 1-1.5 0v-23A.75.75 0 0 1 .75 0h22a.75.75 0 0 1 .75.75v23a.75.75 0 1 1-1.5 0V1.5H1.5z"/>
  </g>
</svg>
