<svg xmlns="http://www.w3.org/2000/svg" width="150" height="150" viewBox="0 0 150 150">
  <g fill="none" fill-rule="nonzero">
    <rect width="27.263" height="9.656" x="61.369" y="41.672" fill="#695C00" fill-opacity=".11" rx="2"/>
    <path stroke="#333" stroke-linecap="round" stroke-width="2.5"
          d="M31.815 48V30.92a2 2 0 0 1 1.49-1.934C47.204 25.324 61.102 23.493 75 23.493s27.796 1.83 41.695 5.493a2 2 0 0 1 1.49 1.934v93.567a2 2 0 0 1-2 2h-82.37a2 2 0 0 1-2-2v-47.45M31.815 54v-1.031"/>
    <path stroke="#333" stroke-linecap="square" stroke-width="2.5" d="M45.228 69.218v55.886"/>
    <path stroke="#695C00" stroke-linecap="square" stroke-opacity=".11" stroke-width="2.5" d="M21.5 126.486H129"/>
    <path stroke="#333" stroke-linecap="square" stroke-width="2.5" d="M104.235 69.218v55.886"/>
    <path stroke="#333" stroke-linecap="round" stroke-width="2.5"
          d="M53.15 73.25h50.49M48 73.25h-2M45.15 79.846h50.49"/>
    <path stroke="#333" stroke-linecap="square" stroke-width="2.5" d="M47 86.533h56.578"/>
    <g transform="translate(73 95.533)">
      <path fill="#FFDB15" d="M8.351 16.941h3.175v6.351H8.351z"/>
      <rect width="15.242" height="15.242" x=".73" y="15.868" stroke="#333" stroke-width="2.5" rx="2"/>
      <rect width="15.242" height="15.242" x="15.972" y="15.868" stroke="#333" stroke-width="2.5" rx="2"/>
      <path fill="#FFDB15" d="M24.53 1.921h3.175v6.351H24.53zM24.53 16.941h3.175v6.351H24.53z"/>
      <rect width="15.242" height="15.242" x="15.972" y=".626" stroke="#333" stroke-width="2.5" rx="2"/>
    </g>
    <path fill="#695C00" fill-opacity=".11" d="M41.596 58.122h67.881a2 2 0 0 1 2 2v7.656H39.596v-7.656a2 2 0 0 1 2-2z"/>
    <path stroke="#333" stroke-linecap="square" stroke-width="2.5" d="M40.668 66.737h69.736"/>
    <rect width="25.5" height="7.156" x="62.25" y="36.766" fill="#695C00" fill-opacity=".11" stroke="#333"
          stroke-width="2.5" rx="2"/>
    <path fill="#EFCC12" d="M20.221 124.737h110.022v3H20.221z"/>
    <path fill="#FFDB15" d="M17.053 127.737h104.893v1.126H17.053z"/>
  </g>
</svg>
