<svg version="1.1" viewBox="0 0 126 118" xmlns="http://www.w3.org/2000/svg">
  <title>Group</title>
  <desc>Created with Sketch.</desc>
  <g fill="none" fill-rule="evenodd">
    <g transform="translate(-1106 -261)" fill-rule="nonzero">
      <g transform="translate(1107 262)">
        <rect x="4" y="5" width="121" height="112" rx="4" fill="#F5F5F5" style="mix-blend-mode:multiply"/>
        <path d="m4 0h113c2.2091-4.0581e-16 4 1.7909 4 4v104c0 2.2091-1.7909 4-4 4h-113c-2.2091 0-4-1.7909-4-4v-104c-2.7054e-16 -2.2091 1.7909-4 4-4z" fill="#F5F5F5" stroke="#000" stroke-dasharray="426,10" stroke-linecap="round" stroke-opacity=".16" stroke-width="2"/>
        <rect x="6" y="12" width="109" height="27" rx="4" fill="#D8D8D8"/>
        <rect x="8" y="72" width="24" height="27" rx="4" fill="#D8D8D8"/>
        <rect x="37" y="72" width="76" height="27" rx="4" fill="#D8D8D8"/>
        <rect x="7" y="51" width="106" height="9" rx="2" fill="#D8D8D8"/>
      </g>
    </g>
  </g>
</svg>
