<svg width="20px" height="16px" viewBox="0 0 20 16" version="1.1" xmlns="http://www.w3.org/2000/svg" xmlns:xlink="http://www.w3.org/1999/xlink">
  <g id="Symbols" stroke="none" stroke-width="1" fill="none" fill-rule="evenodd">
    <g id="Icon-/-FIlter" transform="translate(-2.000000, -4.000000)" fill="#333333">
      <g id="IC_Filters" transform="translate(2.000000, 4.000000)">
        <path d="M9.91303408,12 L20,12 L20,13.5 L9.91303408,13.5 C9.57445218,14.93335 8.28679082,16 6.75,16 C5.21320918,16 3.92554782,14.93335 3.58696592,13.5 L0,13.5 L0,12 L3.58696592,12 C3.92554782,10.56665 5.21320918,9.5 6.75,9.5 C8.28679082,9.5 9.57445218,10.56665 9.91303408,12 Z M6.75,14.5 C7.71649831,14.5 8.5,13.7164983 8.5,12.75 C8.5,11.7835017 7.71649831,11 6.75,11 C5.78350169,11 5,11.7835017 5,12.75 C5,13.7164983 5.78350169,14.5 6.75,14.5 Z" id="Combined-Shape"></path>
        <path d="M10.0869659,2.5 C10.4255478,1.06665 11.7132092,0 13.25,0 C14.7867908,0 16.0744522,1.06665 16.4130341,2.5 L20,2.5 L20,4 L16.4130341,4 C16.0744522,5.43335 14.7867908,6.5 13.25,6.5 C11.7132092,6.5 10.4255478,5.43335 10.0869659,4 L0,4 L0,2.5 L10.0869659,2.5 Z M13.25,5 C14.2164983,5 15,4.21649831 15,3.25 C15,2.28350169 14.2164983,1.5 13.25,1.5 C12.2835017,1.5 11.5,2.28350169 11.5,3.25 C11.5,4.21649831 12.2835017,5 13.25,5 Z" id="Combined-Shape"></path>
      </g>
    </g>
  </g>
</svg>
