<svg xmlns="http://www.w3.org/2000/svg" width="66" height="38" viewBox="0 0 66 38">
  <g fill="none" fillRule="evenodd">
    <path fill="#FFDB15" d="M4 1h60a1 1 0 0 1 1 1v11H1V4a3 3 0 0 1 3-3z" />
    <path stroke="#333" strokeWidth="1.5" d="M59.311 37H4.143C2.048 36.867 1 35.795 1 33.784V4.343C1.016 2.114 2.07 1 4.164 1h57.839C64 1.039 65 2.227 65 4.566V30.85" />
    <path fill="#333" d="M7 6h1.5v14H7zM7 26h36v1.5H7zM7 29.5h52V31H7zM11 6h1v14h-1zM14 6h1v14h-1zM16 6h1.5v14H16zM20 6h1.5v14H20zM23 6h1v14h-1zM26 6h1.5v14H26zM29 6h1v14h-1zM32 6h1v14h-1zM34 6h1v14h-1zM37 6h1.5v14H37zM40 6h1.5v14H40zM44 6h1v14h-1zM46 6h1v14h-1zM49 6h1.5v14H49zM53 6h1v14h-1zM55 6h1v14h-1zM57.5 6H59v14h-1.5z" />
  </g>
</svg>
