<svg xmlns="http://www.w3.org/2000/svg" width="116" height="116" viewBox="0 0 116 116">
  <g fill="none" fill-rule="nonzero">
    <g transform="translate(23.087 36.25)">
      <rect width="42.796" height="10.136" fill="#F5D328" rx="2"/>
      <path stroke="#333" stroke-linecap="round" stroke-linejoin="round" stroke-width="1.5"
            d="M59.69 22.524h-7.01a2 2 0 0 1-2-2v-5.883"/>
      <path stroke="#333" stroke-linecap="round" stroke-width="1.5"
            d="M0 14.64V2.253A2.252 2.252 0 0 1 2.252 0h38.292a2.252 2.252 0 0 1 2.252 2.252v38.292H2.252A2.252 2.252 0 0 1 0 38.29V25.903M0 21.641v-.243"/>
      <circle cx="11.825" cy="39.981" r="6.57" fill="#F0F0F0" stroke="#333" stroke-width="1.5"/>
      <path stroke="#333" stroke-width="1.5"
            d="M42.701 40.638h24.28c.69 0 1.25-.56 1.25-1.25V23.715l-11.878-13.53a1.25 1.25 0 0 0-.94-.425H43.952c-.69 0-1.25.56-1.25 1.25v29.628z"/>
      <circle cx="54.621" cy="38.854" r="6.57" fill="#F0F0F0" stroke="#333" stroke-width="1.5"/>
      <path stroke="#333" stroke-linecap="round" stroke-width="1.5" d="M37.373 20.835V5.068"/>
    </g>
  </g>
</svg>
