<svg xmlns="http://www.w3.org/2000/svg" width="62" height="62" viewBox="0 0 62 62" fill="none">
  <rect x="0.5" y="0.5" width="61" height="61" rx="30.5" stroke="#3483FA" />
  <path d="M24.8 0H2.75556C1.24 0 0 1.25476 0 2.78836V16.7302C0 18.2638 1.24 19.5185 2.75556 19.5185H24.8C26.3156 19.5185 27.5556 18.2638 27.5556 16.7302V2.78836C27.5556 1.25476 26.3156 0 24.8 0ZM12.4 4.18254H15.1556V6.9709H12.4V4.18254ZM12.4 8.36508H15.1556V11.1534H12.4V8.36508ZM8.26667 4.18254H11.0222V6.9709H8.26667V4.18254ZM8.26667 8.36508H11.0222V11.1534H8.26667V8.36508ZM6.88889 11.1534H4.13333V8.36508H6.88889V11.1534ZM6.88889 6.9709H4.13333V4.18254H6.88889V6.9709ZM19.2889 16.7302H8.26667V13.9418H19.2889V16.7302ZM19.2889 11.1534H16.5333V8.36508H19.2889V11.1534ZM19.2889 6.9709H16.5333V4.18254H19.2889V6.9709ZM23.4222 11.1534H20.6667V8.36508H23.4222V11.1534ZM23.4222 6.9709H20.6667V4.18254H23.4222V6.9709Z" transform="translate(17.2222 20.6664)" fill="#2A6EFC" />
</svg>
