<svg xmlns="http://www.w3.org/2000/svg" width="108" height="79" viewBox="0 0 108 79">
  <g fill="none" fill-rule="nonzero">
    <path stroke="#333" stroke-dasharray="242,15" stroke-linecap="round" stroke-width="2" d="M20.53 5.732h62.316a2.71 2.71 0 0 1 2.71 2.71v62.317a2.71 2.71 0 0 1-2.71 2.71H20.53a2.71 2.71 0 0 1-2.71-2.71V8.442a2.71 2.71 0 0 1 2.71-2.71z"/>
    <g fill="#000" fill-opacity=".8">
      <path d="M73.363 41.801h5.42v21.961h-5.42zM24.593 41.801h2.032v21.961h-2.032zM27.98 41.801h2.032v21.961H27.98zM31.367 41.801h3.387v21.961h-3.387zM37.463 41.801h2.032v21.961h-2.032zM40.85 41.801h2.032v21.961H40.85zM44.237 41.801h3.387v21.961h-3.387zM50.333 41.801h2.032v21.961h-2.032zM53.72 41.801h3.387v21.961H53.72zM66.59 41.801h2.032v21.961H66.59zM69.976 41.801h2.033v21.961h-2.033zM59.816 41.801h2.032v21.961h-2.032zM63.203 41.801h2.032v21.961h-2.032z"/>
    </g>
    <path fill="#E9E9E9" d="M28.593 20.634h46.19a4 4 0 0 1 4 4v5.547a4 4 0 0 1-4 4h-46.19a4 4 0 0 1-4-4v-5.547a4 4 0 0 1 4-4z"/>
    <path fill="#FFDB15" d="M27.98 11.828h8.806a3.387 3.387 0 0 1 0 6.774H27.98a3.387 3.387 0 0 1 0-6.774z"/>
    <g transform="translate(66.824 22.801)">
      <circle cx="19.063" cy="19.171" r="20.059" fill="#F5D328" stroke="#FFF" stroke-width="2.5"/>
      <path stroke="#333" stroke-linecap="round" stroke-width="2" d="M12.896 15.903h8.652c2.736 0 4.953 2.34 4.953 5.228 0 2.764-2.032 5.028-4.605 5.216M17.79 26.35h.086M14.136 26.347h-.089"/>
      <path stroke="#333" stroke-linecap="round" stroke-linejoin="round" stroke-width="2" d="M16.985 21.065l-5.094-5.094 5.094-5.094"/>
    </g>
  </g>
</svg>
