<?xml version="1.0" encoding="UTF-8"?>
<svg width="96px" height="96px" viewBox="0 0 96 96" version="1.1" xmlns="http://www.w3.org/2000/svg" xmlns:xlink="http://www.w3.org/1999/xlink">
  <g id="menu/05.labeling" stroke="none" stroke-width="1" fill="none" fill-rule="evenodd">
    <g id="Group-3-Copy-3" transform="translate(18.000000, 18.000000)" fill-rule="nonzero">
      <g id="Group-3-Copy-2">
        <g id="dock/05" transform="translate(0.500000, 0.500000)">
          <path d="M7,22.495557 L52,22.495557 C52.5522847,22.495557 53,22.9432723 53,23.495557 L53,33.495557 C53,34.0478418 52.5522847,34.495557 52,34.495557 L7,34.495557 C6.44771525,34.495557 6,34.0478418 6,33.495557 L6,23.495557 C6,22.9432723 6.44771525,22.495557 7,22.495557 Z" id="Rectangle-7-Copy" fill="#FFDB15"></path>
          <path d="M58.6822855,2.75814863 L58.6822855,56.327692 C58.6822855,57.6140242 57.6395071,58.6568026 56.3531749,58.6568026 L2.78363152,58.6568026 C1.49729927,58.6568026 0.45452094,57.6140242 0.45452094,56.327692 L0.45452094,2.75814863 C0.45452094,1.47181637 1.49729927,0.429038045 2.78363152,0.429038045 L56.3531749,0.429038045 C57.6395071,0.429038045 58.6822855,1.47181637 58.6822855,2.75814863 Z" id="Rectangle-5" stroke="#333333" stroke-width="1.5" stroke-linecap="round" stroke-dasharray="150,15"></path>
        </g>
        <path d="M7,40.3710938 L8.32692308,40.3710938 L8.32692308,52.3710938 L7,52.3710938 L7,40.3710938 Z M10.5384615,40.3710938 L11.4230769,40.3710938 L11.4230769,52.3710938 L10.5384615,52.3710938 L10.5384615,40.3710938 Z M13.1923077,40.3710938 L14.0769231,40.3710938 L14.0769231,52.3710938 L13.1923077,52.3710938 L13.1923077,40.3710938 Z M14.9615385,40.3710938 L16.2884615,40.3710938 L16.2884615,52.3710938 L14.9615385,52.3710938 L14.9615385,40.3710938 Z M18.5,40.3710938 L19.8269231,40.3710938 L19.8269231,52.3710938 L18.5,52.3710938 L18.5,40.3710938 Z M21.1538462,40.3710938 L22.0384615,40.3710938 L22.0384615,52.3710938 L21.1538462,52.3710938 L21.1538462,40.3710938 Z M23.8076923,40.3710938 L25.1346154,40.3710938 L25.1346154,52.3710938 L23.8076923,52.3710938 L23.8076923,40.3710938 Z M26.4615385,40.3710938 L27.3461538,40.3710938 L27.3461538,52.3710938 L26.4615385,52.3710938 L26.4615385,40.3710938 Z M29.1153846,40.3710938 L30,40.3710938 L30,52.3710938 L29.1153846,52.3710938 L29.1153846,40.3710938 Z M30.8846154,40.3710938 L31.7692308,40.3710938 L31.7692308,52.3710938 L30.8846154,52.3710938 L30.8846154,40.3710938 Z M33.5384615,40.3710938 L34.8653846,40.3710938 L34.8653846,52.3710938 L33.5384615,52.3710938 L33.5384615,40.3710938 Z M36.1923077,40.3710938 L37.5192308,40.3710938 L37.5192308,52.3710938 L36.1923077,52.3710938 L36.1923077,40.3710938 Z M39.7307692,40.3710938 L40.6153846,40.3710938 L40.6153846,52.3710938 L39.7307692,52.3710938 L39.7307692,40.3710938 Z M41.5,40.3710938 L42.3846154,40.3710938 L42.3846154,52.3710938 L41.5,52.3710938 L41.5,40.3710938 Z M44.1538462,40.3710938 L45.4807692,40.3710938 L45.4807692,52.3710938 L44.1538462,52.3710938 L44.1538462,40.3710938 Z M47.6923077,40.3710938 L48.5769231,40.3710938 L48.5769231,52.3710938 L47.6923077,52.3710938 L47.6923077,40.3710938 Z M49.4615385,40.3710938 L50.3461538,40.3710938 L50.3461538,52.3710938 L49.4615385,52.3710938 L49.4615385,40.3710938 Z M51.6730769,40.3710938 L53,40.3710938 L53,52.3710938 L51.6730769,52.3710938 L51.6730769,40.3710938 Z" id="Shape" fill="#333333"></path>
        <path d="M9.49439544,11.3590302 L26.7710787,11.3590302" id="Line-3-Copy-4" stroke="#333333" stroke-width="1.5" stroke-linecap="round"></path>
        <path d="M9.73434937,16.0119032 L19.3325067,16.0119032" id="Line-3-Copy-5" stroke="#333333" stroke-width="1.5" stroke-linecap="round"></path>
      </g>
    </g>
  </g>
</svg>
