<svg xmlns="http://www.w3.org/2000/svg" width="17" height="17" viewBox="0 0 17 17">
  <path fill="#3483FA" fill-rule="nonzero" d="M4.691 14.072l-.344.305c-.39.351-.792.623-1.213.623-.703 0-1.016-.64-1.016-1.377V3.377C2.118 2.64 2.43 2 3.134 2H13.15c.668 0 .968.567.968 1.377v10.246c0 .81-.3 1.377-.968 1.377-.393 0-.738-.229-1.178-.624l-.335-.302-.335.302c-.384.346-.951.624-1.4.624-.45 0-1.016-.278-1.4-.624l-.335-.302-.336.302c-.384.346-.951.624-1.4.624-.45 0-1.017-.278-1.4-.624l-.34-.304zM3.134 3c.044 0-.016.123-.016.377v10.246c0 .252.06.376.017.377.062-.002.37-.21.547-.369l.412-.366a.891.891 0 0 1 .598-.224.89.89 0 0 1 .597.223l.41.369c.217.195.568.367.732.367.164 0 .514-.172.731-.367l.409-.368a.887.887 0 0 1 .596-.224c.22 0 .433.077.595.224l.409.368c.217.195.567.367.73.367.165 0 .515-.172.732-.367l.409-.368a.887.887 0 0 1 .595-.224c.221 0 .433.078.596.224l.408.368c.174.156.348.282.442.337.02-.078.035-.195.035-.347V3.377c0-.173-.018-.301-.044-.377h-9.94zm8.072 7.812H8.5v-1h2.706v1zm0-2.466H5.088v-1h6.118v1zm0-2.52H5.088v-1h6.118v1z"/>
</svg>
