<svg xmlns="http://www.w3.org/2000/svg" width="30" height="27" viewBox="0 0 30 27">
  <g fill="none" fill-rule="evenodd" stroke="#333" stroke-width="1.5">
    <path stroke-linecap="round" d="M1 18.655l2.543-2.064a1 1 0 0 1 1.325.057l5.758 5.564a1 1 0 0 1 0 1.438L8.85 25.366"/>
    <path d="M11.37 12.458V3.514a2 2 0 0 1 2-2H23.89a2 2 0 0 1 2 2v9.911"/>
    <path stroke-linecap="round" d="M11.37 22.255l.92-.959a1 1 0 0 1 .721-.308h7.966a1 1 0 0 0 .564-.174l6.489-4.43c.597-.408.923-1.111.847-1.83l-.027-.25a1.334 1.334 0 0 0-.992-1.15l-.07-.019a2 2 0 0 0-1.55.233l-3.395 2.088a1 1 0 0 1-.696.134l-1.58-.276"/>
    <path d="M16.556 1.514v2.111a1 1 0 0 0 1 1h2.148a1 1 0 0 0 1-1v-2.11"/>
    <path stroke-linecap="round" d="M6.185 16.033l3.93-2.915a1 1 0 0 1 .596-.196h10.03a1 1 0 0 1 1 1v.555l-1.42.697-5.293.161"/>
  </g>
</svg>
