<svg xmlns="http://www.w3.org/2000/svg" width="17" height="17" viewBox="0 0 17 17">
  <path fill="#3483FA" fill-rule="nonzero" d="M12.597 6.045v-.848l.035-.035-.035.883zm0-.869v-.049l-2.442 2.442-3.525 3.454-.78-.85 5.931-5.861-.068-.003.033-.033h-.876l-1.29-.05.048-1.107h4.176l-.05 4.174-1.157-.05.05-2.116-.05.049zM9.275 6.748l2.422-2.423.05.001-2.472 2.422zm3.372 5.976V8.5l1.157.05-.05 4.174a1.16 1.16 0 0 1-1.157 1.157H4.149c-.64 0-1.157-.519-1.157-1.157V4.276c0-.638.517-1.157 1.157-1.157h4.224l-.05 1.157-4.174-.05-.05 8.498 8.498.05.05-.05z"/>
</svg>
