<svg xmlns="http://www.w3.org/2000/svg" width="96" height="96" viewBox="0 0 96 96">
  <g fill="none" fill-rule="nonzero" stroke-width="1.5" transform="translate(7.763 19)">
    <g stroke="#333" stroke-linecap="round">
        <path d="M18 35.846V3.8C18 2.254 19.164 1 20.6 1h46.8C68.836 1 70 2.254 70 3.8v50.4c0 1.546-1.164 2.8-2.6 2.8H20.6c-1.436 0-2.6-1.254-2.6-2.8v-6.533-.467M17.223 16.694h-9.01M10.466 25.745h-9.01M21.728 35.913H8.214M3.709 35.913h1.126"/>
    </g>
    <rect width="17.5" height="11.5" x="24.75" y="7.75" stroke="#333" rx="2"/>
    <path stroke="#333" stroke-linecap="round" d="M28.7 12.5h5.6M28.833 15.083h3.334"/>
    <circle cx="15.204" cy="15.204" r="15.204" fill="#F5D328" stroke="#F0F0F0" transform="translate(54 15)"/>
    <path stroke="#333" stroke-linecap="round" d="M63 27h8.608c2.721 0 4.927 2.329 4.927 5.201 0 2.75-2.021 5.002-4.582 5.189-.114.008-6.235 0-6.351 0"/>
    <path stroke="#333" stroke-linecap="round" stroke-linejoin="round" d="M67.068 32.136L62 27.068 67.068 22"/>
  </g>
</svg>
