<svg xmlns="http://www.w3.org/2000/svg" width="150" height="150" viewBox="0 0 150 150">
  <g fill="none" fill-rule="evenodd">
    <path fill="#FFF" d="M-105-168h360v640h-360z" />
    <path fill="#F5D328" d="M-105-168h360v24h-360z" />
    <g opacity=".4">
      <text fill="#000" font-family="Roboto-Medium, Roboto" font-size="14" font-weight="400" opacity=".9" transform="translate(211 -164)">
        <tspan x=".46" y="13">12:30</tspan>
      </text>
      <path d="M192-164h16v16h-16z" />
      <path fill="#000" d="M201-162.125V-163h-3v.875h-3V-149h9v-13.125z" />
      <path d="M172-164h16v16h-16z" />
      <path fill="#000" d="M172-149h14v-14z" />
      <g>
        <path d="M153-164h16v16h-16z" />
        <path fill="#000" d="M151.977-159.984A14.934 14.934 0 0 1 161-163c3.387 0 6.512 1.123 9.023 3.016L161-149l-9.023-10.984z" />
      </g>
    </g>
    <g>
      <g fill-rule="nonzero">
        <path fill="#E9E9E9" d="M34.898 51.443H115.5a2 2 0 0 1 2 2v5.59H32.898v-5.59a2 2 0 0 1 2-2z" />
        <path stroke="#E9E9E9" stroke-linecap="square" stroke-width="2.5" d="M21.5 123.578H129" />
        <path stroke="#333" stroke-width="2.5" d="M32.687 51.044a2.75 2.75 0 0 0-.402 1.431v67.853a2.75 2.75 0 0 0 2.75 2.75h79.93a2.75 2.75 0 0 0 2.75-2.75V52.592a2.75 2.75 0 0 0-.482-1.555l-8.948-13.05a2.75 2.75 0 0 0-2.268-1.196H42.918c-.96 0-1.849.5-2.348 1.32l-7.883 12.933z" />
        <path fill="#FFF" d="M29.398 81.176h7v23.165h-7zM29.398 76.963h7v-4h-7z" />
        <path stroke="#333" stroke-linecap="round" stroke-linejoin="round" stroke-width="2.5" d="M38 58.339h61M94 51.684h23.344" />
        <path fill="#FFDB15" stroke="#333" stroke-width="2.5" d="M67.724 52.672v22.927a.7.7 0 0 0 .91.667l6.676-2.106 6.676 2.106a.7.7 0 0 0 .91-.667V52.672l-3.3-15.88h-8.57l-3.302 15.88z" />
        <path stroke="#333" stroke-linecap="round" stroke-linejoin="round" stroke-width="2.5" d="M32.898 51.684H88" />
        <g transform="translate(42 93.934)">
          <path fill="#E9E9E9" d="M2.193 2.815h25a2 2 0 0 1 2 2v15.578a2 2 0 0 1-2 2h-25a2 2 0 0 1-2-2V4.815a2 2 0 0 1 2-2z" />
          <rect width="29" height="14.875" x=".193" y="2.815" fill="#FFDB15" rx="2" />
          <rect width="26.5" height="15.757" x="1.443" y="1.993" stroke="#333" stroke-width="2.5" rx="2" />
          <path stroke="#333" stroke-linecap="round" stroke-linejoin="round" stroke-width="2.5" d="M7.568 7.538h9.291M7.568 11.606h4.291" />
        </g>
      </g>
      <g fill-rule="nonzero">
        <path fill="#FFF" d="M117.941 113.048c12.219 0 22.124-9.905 22.124-22.123 0-12.219-9.905-22.124-22.124-22.124-12.218 0-22.123 9.905-22.123 22.124 0 12.218 9.905 22.123 22.123 22.123z" />
        <path stroke="#333" stroke-linecap="round" stroke-linejoin="round" stroke-width="2.5" d="M107.691 89.925l7.5 7.5 13-13" />
        <path fill="#E9E9E9" d="M96.016 86.767c1.532 10.723 10.753 18.967 21.9 18.967 11.146 0 20.368-8.244 21.9-18.967.147 1.032.223 2.086.223 3.158 0 12.218-9.905 22.123-22.123 22.123-12.219 0-22.124-9.905-22.124-22.123 0-1.072.076-2.126.224-3.158z" />
        <path stroke="#333" stroke-dasharray="90,8" stroke-linecap="round" stroke-width="2.5" d="M117.941 113.048c12.219 0 22.124-9.905 22.124-22.123 0-12.219-9.905-22.124-22.124-22.124-12.218 0-22.123 9.905-22.123 22.124 0 12.218 9.905 22.123 22.123 22.123z" />
      </g>
    </g>
  </g>
</svg>
