<svg width="134" height="107" viewBox="0 0 134 107" fill="none" xmlns="http://www.w3.org/2000/svg">
  <path
    d="M127.9 75.6193V0H41.9949V35.6122H46.0986V4.10911H75.4237V18.8909H83.8531H87.9569H96.2882V4.10911H123.796V75.6191H113.126V52.5963H71.2681V75.6191H56.4946V37.8038H6.42912V75.6191H0V107H134V75.6193H127.9ZM92.1844 14.782H79.5274V4.10911H92.1844V14.782ZM85.7681 56.7054H98.3529V58.4559H85.7681V56.7054ZM75.3719 73.4157V69.3066V56.7054H81.6644V62.0409H102.457V56.7054H109.023V75.6191H75.3719V73.4157ZM10.5329 50.4047H27.2214V54.5138H10.5329V50.4047ZM10.5329 58.6229H31.3251V46.2956H10.5329V41.9126H52.3909V48.4872V52.5963V75.6191H10.5329V58.6229ZM4.10375 92.3175H6.15563V94.235H10.5329V90.1259H6.15563V88.2084H4.10375V86.0168H16.8254V88.2084H14.6366V92.3175H16.8254V96.4267H4.10375V92.3175ZM129.896 102.891H4.10375V100.81H129.896V102.891ZM20.9291 96.4267V86.0171H56.4946V96.4267H20.9291ZM60.5984 88.2084V86.0168H73.4566V90.1259H71.2679V94.235H73.4566V96.4267H66.8906V94.235H62.7868V96.4267H60.5981V92.3175H62.7868V88.2084H60.5984ZM77.5606 96.4267V86.0171H113.126V96.4267H77.5606ZM129.896 88.2084H127.626V92.3175H129.896V96.4267H125.711V94.235H121.607V96.4267H117.23V94.235H119.419V90.1259H117.23V86.0168H119.419V88.2084H123.523V86.0168H129.897V88.2084H129.896ZM129.896 81.908H4.10375V79.7282H129.896V81.908Z"
    fill="black"/>
</svg>
