<svg xmlns="http://www.w3.org/2000/svg" width="96" height="96" viewBox="0 0 96 96">
  <g fill="none" fill-rule="nonzero">
    <g transform="translate(12.263 21.172)">
      <path stroke="#333" stroke-width="1.5" d="M25 12.828V2a2 2 0 0 1 2-2h23a2 2 0 0 1 2 2v13a2 2 0 0 1-2 2H36.737"/>
      <g stroke="#333" stroke-linecap="round" stroke-width="1.5">
        <path d="M30.5 8.5h5M30.5 5.25H33"/>
      </g>
      <rect width="30" height="30" x="7" y="13" stroke="#333" stroke-width="1.5" rx="2"/>
      <rect width="70" height="6" y="43" stroke="#333" stroke-width="1.5" rx="2"/>
      <g stroke="#333" stroke-width="1.5" transform="translate(10 49)">
        <rect width="13" height="5" rx="1"/>
        <rect width="13" height="5" x="37" rx="1"/>
      </g>
      <rect width="26" height="26" x="37" y="17" stroke="#333" stroke-width="1.5" rx="2"/>
      <g stroke="#333" stroke-linecap="round" stroke-width="1.5">
        <path d="M41.5 38.5h5M41.5 35.25H44"/>
      </g>
      <path fill="#F5D328" d="M17 24.007V14h7v10.007a1 1 0 0 1-1.27.963l-2.23-.628-2.23.628a1 1 0 0 1-1.27-.963z"/>
    </g>
    <g stroke-width="1.5">
      <circle cx="15.204" cy="15.204" r="15.204" fill="#F5D328" stroke="#F0F0F0" transform="translate(53.222 24.493)"/>
      <g stroke="#333" stroke-linecap="round">
        <path d="M63.44 37.056h6.994c2.211 0 4.004 1.892 4.004 4.226 0 2.234-1.643 4.063-3.723 4.216-.093.006-5.066 0-5.16 0"/>
        <path stroke-linejoin="round" d="M66.746 41.229l-4.118-4.118 4.118-4.118"/>
      </g>
    </g>
  </g>
</svg>
