<svg xmlns="http://www.w3.org/2000/svg" width="31" height="40" viewBox="0 0 31 40">
  <g fill="none" fill-rule="evenodd">
    <g stroke="#F15642">
      <path d="M29.982 10.07L20.413.5H3.361c-1.08 0-1.965.886-1.965 1.966v34.517c0 1.08.886 1.965 1.965 1.965h24.656c1.08 0 1.965-.885 1.965-1.965V10.069z"/>
      <path d="M29.275 9.423L21.06 1.207v6.235c0 1.088.892 1.98 1.98 1.98h6.235z"/>
    </g>
    <path fill="#F15642" d="M6.43 29.126v-6.67h3.12c1.45 0 2.24.98 2.24 2.15 0 1.16-.8 2.15-2.24 2.15h-1.7v2.37H6.43zm3.91-4.52c0-.56-.42-.9-.98-.9H7.85v1.8h1.51c.56 0 .98-.35.98-.9zm2.33 4.52v-6.67h2.63c2.09 0 3.54 1.33 3.54 3.34s-1.45 3.33-3.54 3.33h-2.63zm1.42-1.25h1.21c1.32 0 2.09-.95 2.09-2.08 0-1.18-.72-2.09-2.09-2.09h-1.21v4.17zm5.76 1.25v-6.67h4.72v1.25h-3.3v1.41h3.23v1.25h-3.23v2.76h-1.42z"/>
  </g>
</svg>
