<svg width="73" height="117" viewBox="0 0 73 117" fill="none" xmlns="http://www.w3.org/2000/svg">
  <path fill-rule="evenodd" clip-rule="evenodd" d="M58.4257 41.7327H56.3474V32.4959C56.3474 28.6409 53.2224 25.5159 49.3674 25.5159H7.98C4.12505 25.5159 1 28.6409 1 32.4959V108.306C1 112.161 4.12505 115.286 7.98 115.286H49.3674C53.2224 115.286 56.3474 112.161 56.3474 108.306V59.6827H58.4257C59.3425 59.6827 60.0857 58.9395 60.0857 58.0227V43.3927C60.0857 42.4759 59.3425 41.7327 58.4257 41.7327Z" stroke="#333333" stroke-width="2"/>
  <path d="M28.7262 110.064C30.1953 110.064 31.3862 108.873 31.3862 107.404C31.3862 105.935 30.1953 104.744 28.7262 104.744C27.2571 104.744 26.0662 105.935 26.0662 107.404C26.0662 108.873 27.2571 110.064 28.7262 110.064Z" fill="#333333"/>
  <path d="M12 101.09H49.34C50.8091 101.09 52 99.8993 52 98.4302V88.781V32.7502C52 31.2811 50.8091 30.0902 49.34 30.0902H7.66C6.19092 30.0902 5 31.2811 5 32.7502V72.5M5 83V78" stroke="#333333" stroke-width="2"/>
  <path d="M20 19.0902C22.2699 16.6465 25.6954 15.0902 29.5278 15.0902C33.329 15.0902 36.7299 16.6212 39 19.0307" stroke="#333333" stroke-width="2"/>
  <path d="M15 14.9818C18.4646 10.7053 23.693 7.98178 29.5425 7.98178C35.3443 7.98178 40.5352 10.6611 44 14.8776" stroke="#333333" stroke-width="2"/>
  <path d="M10 10.0902C11.4519 8.37688 13.134 6.85745 15 5.57743M49 9.95625C44.3404 4.53501 37.3596 1.09018 29.5572 1.09018C25.3951 1.09018 21.4668 2.07039 18 3.80794" stroke="#333333" stroke-width="2"/>
  <path d="M26.5028 52.2406V44.2406H34.5028" stroke="#333333" stroke-width="2"/>
  <path d="M71.6073 52.2406V44.2406H63.6073" stroke="#333333" stroke-width="2"/>
  <path d="M26.5028 80.2406V88.2406H34.5028" stroke="#333333" stroke-width="2"/>
  <path d="M71.6073 80.2406V88.2406H63.6073" stroke="#333333" stroke-width="2"/>
  <path d="M67.0145 48.2905H53.6451V61.0252H67.0145V48.2905ZM64.3407 58.4782H56.319V50.8374H64.3407V58.4782Z" fill="#333333"/>
  <path d="M44.2865 48.2905H30.917V61.0252H44.2865V48.2905ZM41.6126 58.4782H33.5909V50.8374H41.6126V58.4782Z" fill="#333333"/>
  <path d="M44.2865 71.2129H30.917V83.9476H44.2865V71.2129ZM41.6126 81.4007H33.5909V73.7599H41.6126V81.4007Z" fill="#333333"/>
  <path d="M57.6559 52.1109H63.0037V57.2048H57.6559V52.1109Z" fill="#333333"/>
  <path d="M34.9279 52.1109H40.2756V57.2048H34.9279V52.1109Z" fill="#333333"/>
  <path d="M34.9279 75.0333H40.2756V80.1272H34.9279V75.0333Z" fill="#333333"/>
  <path d="M37.6017 66.119V63.5721C35.8918 63.5721 33.5909 63.5874 33.5909 63.5874V62.2986H30.917V69.9394H33.5909V66.119H37.6017Z" fill="#333333"/>
  <path d="M38.9387 64.8456H40.2756V69.9394H42.9495V64.8456H44.2864V62.2986H38.9387V64.8456Z" fill="#333333"/>
  <path d="M34.9279 67.3925H38.9387V69.9395H34.9279V67.3925Z" fill="#333333"/>
  <path d="M45.6234 48.2905H48.2973V50.8374H45.6234V48.2905Z" fill="#333333"/>
  <path d="M48.2973 55.9313H49.6343V57.2048H52.3081V48.2905H49.6343V53.3844H45.6234V58.4782H48.2973V55.9313Z" fill="#333333"/>
  <path d="M49.6343 63.5721H52.3081V59.7517H45.6234V62.2986H49.6343V63.5721Z" fill="#333333"/>
  <path d="M46.9604 71.2129H49.6343V67.3925H52.3081V64.8456H45.6234V67.3925H46.9604V71.2129Z" fill="#333333"/>
  <path d="M45.6234 72.4864H56.319V75.0333H45.6234V72.4864Z" fill="#333333"/>
  <path d="M56.319 64.8456H67.0145V62.2986H53.6451V71.2129H56.319V64.8456Z" fill="#333333"/>
  <path d="M64.3406 75.0333H67.0145V83.9476H64.3406V75.0333Z" fill="#333333"/>
  <path d="M45.6234 81.4007H63.0037V83.9476H45.6234V81.4007Z" fill="#333333"/>
  <path d="M58.9929 77.5803H63.0037V80.1272H58.9929V77.5803Z" fill="#333333"/>
  <path d="M53.6451 76.3068H50.9712V77.5803H45.6234V80.1272H53.6451V76.3068Z" fill="#333333"/>
  <path d="M67.0146 66.119H64.3407V71.2129H60.3298V68.666H63.0037V66.119H57.6559V73.7599V76.3068H60.3298V73.7599H67.0146V66.119Z" fill="#333333"/>
  <path d="M54.9821 77.5803H57.6559V80.1272H54.9821V77.5803Z" fill="#333333"/>
</svg>
