<svg xmlns="http://www.w3.org/2000/svg" width="81" height="81" viewBox="0 0 81 81">
  <g fill="#FFF" fill-rule="nonzero" stroke="#FFF">
    <path d="M58.7 28.031l1.198 1.247L36.64 53.476 23.966 40.522l1.188-1.257 11.475 11.728z"/>
    <path d="M16.105 11.586L15.013 10.3A39.506 39.506 0 0 1 40.667.888c21.908 0 39.667 17.76 39.667 39.667s-17.76 39.667-39.667 39.667S1 62.462 1 40.555C1 33.494 2.848 26.7 6.307 20.72l1.461.845a37.797 37.797 0 0 0-5.08 18.989c0 20.975 17.004 37.979 37.98 37.979 20.974 0 37.978-17.004 37.978-37.98 0-20.975-17.004-37.978-37.979-37.978a37.818 37.818 0 0 0-24.562 9.01z"/>
  </g>
</svg>
