<svg xmlns="http://www.w3.org/2000/svg" width="96" height="96" viewBox="0 0 96 96">
  <g fill="none" fill-rule="nonzero" stroke-width="1.5">
    <g stroke="#333" transform="translate(19.763 24.172)">
      <path stroke-linecap="round" stroke-linejoin="round" d="M59.69 22.524h-7.01a2 2 0 0 1-2-2v-5.883"/>
      <path stroke-linecap="round" d="M0 2.252A2.252 2.252 0 0 1 2.252 0h38.292a2.252 2.252 0 0 1 2.252 2.252v38.292H2.252A2.252 2.252 0 0 1 0 38.29V25.903M0 21.641v-.243"/>
      <circle cx="11.825" cy="39.981" r="6.57" fill="#F0F0F0"/>
      <path d="M42.79 40.546h24.19c.69 0 1.25-.56 1.25-1.25V23.673L56.396 10.185a1.25 1.25 0 0 0-.94-.425H44.04c-.69 0-1.25.56-1.25 1.25v29.536z"/>
      <circle cx="54.621" cy="38.854" r="6.57" fill="#F0F0F0"/>
      <path stroke-linecap="round" d="M37.373 20.835V5.068"/>
    </g>
    <circle cx="15.204" cy="15.204" r="15.204" fill="#F5D328" stroke="#F0F0F0" transform="translate(4.426 26.493)"/>
    <g stroke="#333" stroke-linecap="round">
      <path d="M14.645 39.056h6.993c2.212 0 4.004 1.892 4.004 4.226 0 2.234-1.643 4.063-3.723 4.216-.093.006-5.066 0-5.16 0"/>
      <path stroke-linejoin="round" d="M17.95 43.229l-4.118-4.118 4.118-4.118"/>
    </g>
  </g>
</svg>
