<svg width="46" height="47" viewBox="0 0 46 47" fill="none" xmlns="http://www.w3.org/2000/svg">
  <path fill-rule="evenodd" clip-rule="evenodd" d="M2.50488 0.426758H42.667C44.0283 0.426758 45.1328 1.61044 45.1328 3.06891V30.195C45.1328 31.6535 44.0283 32.8371 42.667 32.8371H2.50488C1.14355 32.8371 0.0390625 31.6535 0.0390625 30.195V3.06891C0.0390625 1.61044 1.14355 0.426758 2.50488 0.426758ZM28.4736 43.8597H31.292C32.0713 43.8597 32.7012 44.491 32.7012 45.2688C32.7012 46.0481 32.0713 46.678 31.292 46.678H11.5635C10.7842 46.678 10.1543 46.0481 10.1543 45.2688C10.1543 44.491 10.7842 43.8597 11.5635 43.8597H14.3818C15.9375 43.8597 17.2002 42.5971 17.2002 41.0414V36.8139H25.6553V41.0414C25.6553 42.5971 26.918 43.8597 28.4736 43.8597Z" fill="black"/>
</svg>
