<svg xmlns="http://www.w3.org/2000/svg" width="31" height="40" viewBox="0 0 31 40">
  <g fill="none" fill-rule="evenodd">
    <path stroke="#3483FA" d="M29.982 10.07L20.413.5H3.361c-1.08 0-1.965.886-1.965 1.966v34.517c0 1.08.886 1.965 1.965 1.965h24.656c1.08 0 1.965-.885 1.965-1.965V10.069z"/>
    <path stroke="#3483FA" d="M29.275 9.423L21.06 1.207v6.235c0 1.088.892 1.98 1.98 1.98h6.235z"/>
    <path fill="#3483FA" d="M7.37 29.126v-1.15l3.15-4.27H7.37v-1.25h5.01v1.14l-3.15 4.28h3.22v1.25H7.37zm6.16 0v-6.67h3.12c1.45 0 2.24.98 2.24 2.15 0 1.16-.8 2.15-2.24 2.15h-1.7v2.37h-1.42zm3.91-4.52c0-.56-.42-.9-.98-.9h-1.51v1.8h1.51c.56 0 .98-.35.98-.9zm2.33 4.52v-6.67h1.42v5.42h2.82v1.25h-4.24z"/>
  </g>
</svg>
